<?xml version="1.0" encoding="UTF-8" standalone="no"?>
<!DOCTYPE svg PUBLIC "-//W3C//DTD SVG 1.1//EN" "http://www.w3.org/Graphics/SVG/1.1/DTD/svg11.dtd">
<svg version="1.1" xmlns="http://www.w3.org/2000/svg" xmlns:xlink="http://www.w3.org/1999/xlink" preserveAspectRatio="xMidYMid meet" viewBox="0 0 715 575" width="715" height="575"><defs><path d="M679.89 6.23L681.36 6.5L682.8 6.83L684.22 7.21L685.62 7.64L687 8.13L688.34 8.67L689.67 9.26L690.96 9.9L692.23 10.59L693.46 11.32L694.67 12.1L695.84 12.93L696.98 13.79L698.08 14.7L699.15 15.66L700.18 16.65L701.17 17.68L702.12 18.74L703.03 19.85L703.9 20.98L704.72 22.15L705.5 23.36L706.23 24.59L706.92 25.86L707.56 27.15L708.15 28.48L708.69 29.83L709.18 31.2L709.61 32.6L709.99 34.02L710.32 35.46L710.59 36.93L710.8 38.41L710.95 39.91L711.05 41.43L711.08 42.96L711.08 420.78L711.05 422.31L710.95 423.83L710.8 425.33L710.59 426.81L710.32 428.28L709.99 429.72L709.61 431.14L709.18 432.54L708.69 433.91L708.15 435.26L707.56 436.59L706.92 437.88L706.23 439.15L705.5 440.38L704.72 441.59L703.9 442.76L703.03 443.89L702.12 445L701.17 446.06L700.18 447.09L699.15 448.08L698.08 449.04L696.98 449.95L695.84 450.81L694.67 451.64L693.46 452.42L692.23 453.15L690.96 453.84L689.67 454.48L688.34 455.07L687 455.61L685.62 456.1L684.22 456.53L682.8 456.91L681.36 457.24L679.89 457.51L678.41 457.72L676.91 457.87L675.39 457.96L673.86 457.99L670.95 457.99L711.08 568.25L567.06 457.99L41.14 457.99L39.6 457.96L38.09 457.87L36.58 457.72L35.1 457.51L33.64 457.24L32.19 456.91L30.77 456.53L29.37 456.1L28 455.61L26.65 455.07L25.33 454.48L24.03 453.84L22.77 453.15L21.53 452.42L20.33 451.64L19.16 450.81L18.02 449.95L16.92 449.04L15.85 448.08L14.82 447.09L13.83 446.06L12.88 445L11.97 443.89L11.1 442.76L10.28 441.59L9.5 440.38L8.76 439.15L8.07 437.88L7.43 436.59L6.84 435.26L6.31 433.91L5.82 432.54L5.38 431.14L5 429.72L4.68 428.28L4.41 426.81L4.2 425.33L4.15 424.84L4.15 94.3L4.14 93.66L4.1 93.02L4.03 92.39L3.94 91.77L3.92 91.64L3.92 42.96L3.95 41.43L4.04 39.91L4.2 38.41L4.41 36.93L4.68 35.46L5 34.02L5.38 32.6L5.82 31.2L6.31 29.83L6.84 28.48L7.43 27.15L8.07 25.86L8.76 24.59L9.5 23.36L10.28 22.15L11.1 20.98L11.97 19.85L12.88 18.74L13.83 17.68L14.82 16.65L15.85 15.66L16.92 14.7L18.02 13.79L19.16 12.93L20.33 12.1L21.53 11.32L22.77 10.59L24.03 9.9L25.33 9.26L26.65 8.67L28 8.13L29.37 7.64L30.77 7.21L32.19 6.83L33.64 6.5L35.1 6.23L36.58 6.02L38.09 5.87L39.6 5.78L41.14 5.75L673.86 5.75L675.39 5.78L676.91 5.87L678.41 6.02L678.41 6.02L679.89 6.23Z" id="a6Enr5J4wV"></path><path d="M-175.03 1414.68L-137.81 1314.18L-17.67 1314.18L-175.03 1414.68Z" id="bcjXjfPqr"></path><path d="M-175.03 1414.68L-137.81 1314.18L-17.67 1314.18L-175.03 1414.68Z" id="e1bk63PYzN"></path><path d="M-35.39 1239.81L-72.61 1139.31L-192.75 1139.31L-35.39 1239.81Z" id="b59yywQr3"></path><path d="M-35.39 1239.81L-72.61 1139.31L-192.75 1139.31L-35.39 1239.81Z" id="g2xmPHPGop"></path><path d="M418.5 65.2C427.13 65.2 434.13 72.19 434.13 80.82C434.13 91.49 434.13 107.86 434.13 118.52C434.13 127.15 427.13 134.15 418.5 134.15C396.42 134.15 345.81 134.15 323.74 134.15C315.11 134.15 308.11 127.15 308.11 118.52C308.11 107.86 308.11 91.49 308.11 80.82C308.11 72.19 315.11 65.2 323.74 65.2C345.81 65.2 396.42 65.2 418.5 65.2Z" id="b4C3aOOiXy"></path><path d="M93.75 119.88C93.75 137.13 79.75 151.13 62.5 151.13C45.25 151.13 31.25 137.13 31.25 119.88C31.25 102.63 45.25 88.63 62.5 88.63C79.75 88.63 93.75 102.63 93.75 119.88Z" id="bZxVKghUT"></path></defs><g><g><g><use xlink:href="#a6Enr5J4wV" opacity="1" fill="#ffffff" fill-opacity="1"></use><g><use xlink:href="#a6Enr5J4wV" opacity="1" fill-opacity="0" stroke="#000000" stroke-width="5" stroke-opacity="1"></use></g></g><g><use xlink:href="#bcjXjfPqr" opacity="1" fill="#627f99" fill-opacity="1"></use><g><use xlink:href="#bcjXjfPqr" opacity="1" fill-opacity="0" stroke="#000000" stroke-width="1" stroke-opacity="0"></use></g></g><g><use xlink:href="#e1bk63PYzN" opacity="1" fill="#000000" fill-opacity="0"></use><g><use xlink:href="#e1bk63PYzN" opacity="1" fill-opacity="0" stroke="#00090b" stroke-width="0" stroke-opacity="1"></use></g></g><g><use xlink:href="#b59yywQr3" opacity="1" fill="#627f99" fill-opacity="1"></use><g><use xlink:href="#b59yywQr3" opacity="1" fill-opacity="0" stroke="#000000" stroke-width="1" stroke-opacity="0"></use></g></g><g><use xlink:href="#g2xmPHPGop" opacity="1" fill="#000000" fill-opacity="0"></use><g><use xlink:href="#g2xmPHPGop" opacity="1" fill-opacity="0" stroke="#00090b" stroke-width="0" stroke-opacity="1"></use></g></g><g><use xlink:href="#b4C3aOOiXy" opacity="1" fill="#e71b1b" fill-opacity="0"></use></g><g><use xlink:href="#bZxVKghUT" opacity="1" fill="#e71b1b" fill-opacity="0"></use></g></g></g></svg>