<?xml version="1.0" encoding="UTF-8" standalone="no"?>
<!DOCTYPE svg PUBLIC "-//W3C//DTD SVG 1.1//EN" "http://www.w3.org/Graphics/SVG/1.1/DTD/svg11.dtd">
<svg version="1.1" xmlns="http://www.w3.org/2000/svg" xmlns:xlink="http://www.w3.org/1999/xlink" preserveAspectRatio="xMidYMid meet" viewBox="0 0 830 460" width="830" height="460"><defs><path d="" id="bXNUKkDrV"></path><path d="M790.24 4L791.74 4.15L793.22 4.36L794.69 4.63L796.13 4.96L797.55 5.34L798.95 5.77L800.33 6.26L801.67 6.8L803 7.39L804.29 8.03L805.56 8.72L806.79 9.45L808 10.23L809.17 11.06L810.31 11.92L811.41 12.83L812.48 13.79L813.51 14.78L814.5 15.81L815.45 16.87L816.36 17.98L817.23 19.11L818.05 20.28L818.83 21.49L819.56 22.72L820.25 23.99L820.89 25.28L821.48 26.61L822.02 27.96L822.51 29.33L822.94 30.73L823.32 32.15L823.65 33.59L823.92 35.06L824.13 36.54L824.28 38.04L824.38 39.56L824.41 41.09L824.41 418.91L824.38 420.44L824.28 421.96L824.13 423.46L823.92 424.94L823.65 426.41L823.32 427.85L822.94 429.27L822.51 430.67L822.02 432.04L821.48 433.39L820.89 434.72L820.25 436.01L819.56 437.28L818.83 438.51L818.05 439.72L817.23 440.89L816.36 442.02L815.45 443.13L814.5 444.19L813.51 445.22L812.48 446.21L811.41 447.17L810.31 448.08L809.17 448.94L808 449.77L806.79 450.55L805.56 451.28L804.29 451.97L803 452.61L801.67 453.2L800.33 453.74L798.95 454.23L797.55 454.66L796.13 455.04L794.69 455.37L793.22 455.64L791.74 455.85L790.24 456L788.72 456.09L787.19 456.12L154.47 456.12L152.93 456.09L151.42 456L149.91 455.85L148.43 455.64L146.97 455.37L145.52 455.04L144.1 454.66L142.7 454.23L141.33 453.74L139.98 453.2L138.66 452.61L137.36 451.97L136.1 451.28L134.86 450.55L133.66 449.77L132.49 448.94L131.35 448.08L130.25 447.17L129.18 446.21L128.15 445.22L127.16 444.19L126.21 443.13L125.3 442.02L124.43 440.89L123.61 439.72L122.83 438.51L122.09 437.28L121.4 436.01L120.76 434.72L120.17 433.39L119.64 432.04L119.15 430.67L118.71 429.27L118.33 427.85L118.01 426.41L117.74 424.94L117.53 423.46L117.37 421.96L117.28 420.44L117.25 418.91L117.25 402.78L5.59 443.42L117.25 297.57L117.25 41.09L117.28 39.56L117.37 38.04L117.53 36.54L117.74 35.06L118.01 33.59L118.33 32.15L118.71 30.73L119.15 29.33L119.64 27.96L120.17 26.61L120.76 25.28L121.4 23.99L122.09 22.72L122.83 21.49L123.61 20.28L124.43 19.11L125.3 17.98L126.21 16.87L127.16 15.81L128.15 14.78L129.18 13.79L130.25 12.83L131.35 11.92L132.49 11.06L133.66 10.23L134.86 9.45L136.1 8.72L137.36 8.03L138.66 7.39L139.98 6.8L141.33 6.26L142.7 5.77L144.1 5.34L145.52 4.96L146.97 4.63L148.43 4.36L149.91 4.15L151.42 4L152.93 3.91L154.47 3.88L787.19 3.88L788.72 3.91L790.24 4Z" id="l1WmCJyp43"></path><path d="M-11.01 1206L-168.37 1306.5L-131.15 1206L-11.01 1206Z" id="c1kwUvY0T7"></path><path d="M-186.09 1031.13L-28.73 1131.63L-65.95 1031.13L-186.09 1031.13Z" id="b7YO0ONdEh"></path></defs><g><g><g><g><use xlink:href="#bXNUKkDrV" opacity="1" fill-opacity="0" stroke="#000000" stroke-width="1" stroke-opacity="1"></use></g></g><g><use xlink:href="#l1WmCJyp43" opacity="1" fill="#ffffff" fill-opacity="1"></use><g><use xlink:href="#l1WmCJyp43" opacity="1" fill-opacity="0" stroke="#000000" stroke-width="5" stroke-opacity="1"></use></g></g><g><use xlink:href="#c1kwUvY0T7" opacity="1" fill="#627f99" fill-opacity="1"></use><g><use xlink:href="#c1kwUvY0T7" opacity="1" fill-opacity="0" stroke="#00090b" stroke-width="0" stroke-opacity="1"></use></g></g><g><use xlink:href="#b7YO0ONdEh" opacity="1" fill="#627f99" fill-opacity="1"></use><g><use xlink:href="#b7YO0ONdEh" opacity="1" fill-opacity="0" stroke="#00090b" stroke-width="0" stroke-opacity="1"></use></g></g></g></g></svg>