<?xml version="1.0" encoding="UTF-8" standalone="no"?>
<!DOCTYPE svg PUBLIC "-//W3C//DTD SVG 1.1//EN" "http://www.w3.org/Graphics/SVG/1.1/DTD/svg11.dtd">
<svg version="1.1" xmlns="http://www.w3.org/2000/svg" xmlns:xlink="http://www.w3.org/1999/xlink" preserveAspectRatio="xMidYMid meet" viewBox="0 0 830 460" width="830" height="460"><defs><path d="" id="bXNUKkDrV"></path><path d="M678.58 4L680.09 4.15L681.57 4.36L683.03 4.63L684.48 4.96L685.9 5.34L687.3 5.77L688.67 6.26L690.02 6.8L691.34 7.39L692.64 8.03L693.9 8.72L695.14 9.45L696.34 10.23L697.51 11.06L698.65 11.92L699.75 12.83L700.82 13.79L701.85 14.78L702.84 15.81L703.79 16.87L704.7 17.98L705.57 19.11L706.39 20.28L707.17 21.49L707.91 22.72L708.6 23.99L709.24 25.28L709.83 26.61L710.36 27.96L710.85 29.33L711.29 30.73L711.67 32.15L711.99 33.59L712.26 35.06L712.47 36.54L712.63 38.04L712.72 39.56L712.75 41.09L712.75 297.57L824.41 443.42L712.75 402.78L712.75 418.91L712.72 420.44L712.63 421.96L712.47 423.46L712.26 424.94L711.99 426.41L711.67 427.85L711.29 429.27L710.85 430.67L710.36 432.04L709.83 433.39L709.24 434.72L708.6 436.01L707.91 437.28L707.17 438.51L706.39 439.72L705.57 440.89L704.7 442.02L703.79 443.13L702.84 444.19L701.85 445.22L700.82 446.21L699.75 447.17L698.65 448.08L697.51 448.94L696.34 449.77L695.14 450.55L693.9 451.28L692.64 451.97L691.34 452.61L690.02 453.2L688.67 453.74L687.3 454.23L685.9 454.66L684.48 455.04L683.03 455.37L681.57 455.64L680.09 455.85L678.58 456L677.07 456.09L675.53 456.12L42.81 456.12L41.28 456.09L39.76 456L38.26 455.85L36.78 455.64L35.31 455.37L33.87 455.04L32.45 454.66L31.05 454.23L29.67 453.74L28.33 453.2L27 452.61L25.71 451.97L24.44 451.28L23.21 450.55L22 449.77L20.83 448.94L19.69 448.08L18.59 447.17L17.52 446.21L16.49 445.22L15.5 444.19L14.55 443.13L13.64 442.02L12.77 440.89L11.95 439.72L11.17 438.51L10.44 437.28L9.75 436.01L9.11 434.72L8.52 433.39L7.98 432.04L7.49 430.67L7.06 429.27L6.68 427.85L6.35 426.41L6.08 424.94L5.87 423.46L5.72 421.96L5.62 420.44L5.59 418.91L5.59 41.09L5.62 39.56L5.72 38.04L5.87 36.54L6.08 35.06L6.35 33.59L6.68 32.15L7.06 30.73L7.49 29.33L7.98 27.96L8.52 26.61L9.11 25.28L9.75 23.99L10.44 22.72L11.17 21.49L11.95 20.28L12.77 19.11L13.64 17.98L14.55 16.87L15.5 15.81L16.49 14.78L17.52 13.79L18.59 12.83L19.69 11.92L20.83 11.06L22 10.23L23.21 9.45L24.44 8.72L25.71 8.03L27 7.39L28.33 6.8L29.67 6.26L31.05 5.77L32.45 5.34L33.87 4.96L35.31 4.63L36.78 4.36L38.26 4.15L39.76 4L41.28 3.91L42.81 3.88L675.53 3.88L677.07 3.91L678.58 4Z" id="a2hV3IuKZ"></path><path d="M-11.01 1206L-168.37 1306.5L-131.15 1206L-11.01 1206Z" id="c1kwUvY0T7"></path><path d="M-186.09 1031.13L-28.73 1131.63L-65.95 1031.13L-186.09 1031.13Z" id="b7YO0ONdEh"></path></defs><g><g><g><g><use xlink:href="#bXNUKkDrV" opacity="1" fill-opacity="0" stroke="#000000" stroke-width="1" stroke-opacity="1"></use></g></g><g><use xlink:href="#a2hV3IuKZ" opacity="1" fill="#ffffff" fill-opacity="1"></use><g><use xlink:href="#a2hV3IuKZ" opacity="1" fill-opacity="0" stroke="#000000" stroke-width="5" stroke-opacity="1"></use></g></g><g><use xlink:href="#c1kwUvY0T7" opacity="1" fill="#627f99" fill-opacity="1"></use><g><use xlink:href="#c1kwUvY0T7" opacity="1" fill-opacity="0" stroke="#00090b" stroke-width="0" stroke-opacity="1"></use></g></g><g><use xlink:href="#b7YO0ONdEh" opacity="1" fill="#627f99" fill-opacity="1"></use><g><use xlink:href="#b7YO0ONdEh" opacity="1" fill-opacity="0" stroke="#00090b" stroke-width="0" stroke-opacity="1"></use></g></g></g></g></svg>