<?xml version="1.0" encoding="UTF-8" standalone="no"?>
<!DOCTYPE svg PUBLIC "-//W3C//DTD SVG 1.1//EN" "http://www.w3.org/Graphics/SVG/1.1/DTD/svg11.dtd">
<svg version="1.1" xmlns="http://www.w3.org/2000/svg" xmlns:xlink="http://www.w3.org/1999/xlink" preserveAspectRatio="xMidYMid meet" viewBox="0 0 715 575" width="715" height="575"><defs><path d="M676.91 116.13L678.42 116.28L679.9 116.49L681.36 116.76L682.81 117.09L684.23 117.47L685.63 117.9L687 118.39L688.35 118.93L689.67 119.52L690.97 120.16L692.23 120.85L693.47 121.58L694.67 122.36L695.84 123.19L696.98 124.05L698.08 124.96L699.15 125.92L700.18 126.91L701.17 127.94L702.12 129L703.03 130.11L703.9 131.24L704.72 132.41L705.5 133.62L706.24 134.85L706.93 136.12L707.57 137.41L708.16 138.74L708.69 140.09L709.18 141.46L709.62 142.86L710 144.28L710.32 145.72L710.59 147.19L710.8 148.67L710.85 149.16L710.85 479.7L710.86 480.34L710.9 480.98L710.97 481.61L711.06 482.23L711.08 482.36L711.08 531.04L711.05 532.57L710.96 534.09L710.8 535.59L710.59 537.07L710.32 538.54L710 539.98L709.62 541.4L709.18 542.8L708.69 544.17L708.16 545.52L707.57 546.85L706.93 548.14L706.24 549.41L705.5 550.64L704.72 551.85L703.9 553.02L703.03 554.15L702.12 555.26L701.17 556.32L700.18 557.35L699.15 558.34L698.08 559.3L696.98 560.21L695.84 561.07L694.67 561.9L693.47 562.68L692.23 563.41L690.97 564.1L689.67 564.74L688.35 565.33L687 565.87L685.63 566.36L684.23 566.79L682.81 567.17L681.36 567.5L679.9 567.77L678.42 567.98L676.91 568.13L675.4 568.22L673.86 568.25L41.14 568.25L39.61 568.22L38.09 568.13L36.59 567.98L35.11 567.77L33.64 567.5L32.2 567.17L30.78 566.79L29.38 566.36L28 565.87L26.66 565.33L25.33 564.74L24.04 564.1L22.77 563.41L21.54 562.68L20.33 561.9L19.16 561.07L18.02 560.21L16.92 559.3L15.85 558.34L14.82 557.35L13.83 556.32L12.88 555.26L11.97 554.15L11.1 553.02L10.28 551.85L9.5 550.64L8.77 549.41L8.08 548.14L7.44 546.85L6.85 545.52L6.31 544.17L5.82 542.8L5.39 541.4L5.01 539.98L4.68 538.54L4.41 537.07L4.2 535.59L4.05 534.09L3.95 532.57L3.92 531.04L3.92 153.22L3.95 151.69L4.05 150.17L4.2 148.67L4.41 147.19L4.68 145.72L5.01 144.28L5.39 142.86L5.82 141.46L6.31 140.09L6.85 138.74L7.44 137.41L8.08 136.12L8.77 134.85L9.5 133.62L10.28 132.41L11.1 131.24L11.97 130.11L12.88 129L13.83 127.94L14.82 126.91L15.85 125.92L16.92 124.96L18.02 124.05L19.16 123.19L20.33 122.36L21.54 121.58L22.77 120.85L24.04 120.16L25.33 119.52L26.66 118.93L28 118.39L29.38 117.9L30.78 117.47L32.2 117.09L33.64 116.76L35.11 116.49L36.59 116.28L38.09 116.13L39.61 116.04L41.14 116.01L44.05 116.01L3.92 5.75L147.94 116.01L673.86 116.01L675.4 116.04L675.4 116.04L676.91 116.13Z" id="c2YiJBlklm"></path><path d="M-175.03 1414.68L-137.81 1314.18L-17.67 1314.18L-175.03 1414.68Z" id="bcjXjfPqr"></path><path d="M-175.03 1414.68L-137.81 1314.18L-17.67 1314.18L-175.03 1414.68Z" id="e1bk63PYzN"></path><path d="M-35.39 1239.81L-72.61 1139.31L-192.75 1139.31L-35.39 1239.81Z" id="b59yywQr3"></path><path d="M-35.39 1239.81L-72.61 1139.31L-192.75 1139.31L-35.39 1239.81Z" id="g2xmPHPGop"></path><path d="M418.5 65.2C427.13 65.2 434.13 72.19 434.13 80.82C434.13 91.49 434.13 107.86 434.13 118.52C434.13 127.15 427.13 134.15 418.5 134.15C396.42 134.15 345.81 134.15 323.74 134.15C315.11 134.15 308.11 127.15 308.11 118.52C308.11 107.86 308.11 91.49 308.11 80.82C308.11 72.19 315.11 65.2 323.74 65.2C345.81 65.2 396.42 65.2 418.5 65.2Z" id="b4C3aOOiXy"></path><path d="M93.75 119.88C93.75 137.13 79.75 151.13 62.5 151.13C45.25 151.13 31.25 137.13 31.25 119.88C31.25 102.63 45.25 88.63 62.5 88.63C79.75 88.63 93.75 102.63 93.75 119.88Z" id="bZxVKghUT"></path></defs><g><g><g><use xlink:href="#c2YiJBlklm" opacity="1" fill="#ffffff" fill-opacity="1"></use><g><use xlink:href="#c2YiJBlklm" opacity="1" fill-opacity="0" stroke="#000000" stroke-width="5" stroke-opacity="1"></use></g></g><g><use xlink:href="#bcjXjfPqr" opacity="1" fill="#627f99" fill-opacity="1"></use><g><use xlink:href="#bcjXjfPqr" opacity="1" fill-opacity="0" stroke="#000000" stroke-width="1" stroke-opacity="0"></use></g></g><g><use xlink:href="#e1bk63PYzN" opacity="1" fill="#000000" fill-opacity="0"></use><g><use xlink:href="#e1bk63PYzN" opacity="1" fill-opacity="0" stroke="#00090b" stroke-width="0" stroke-opacity="1"></use></g></g><g><use xlink:href="#b59yywQr3" opacity="1" fill="#627f99" fill-opacity="1"></use><g><use xlink:href="#b59yywQr3" opacity="1" fill-opacity="0" stroke="#000000" stroke-width="1" stroke-opacity="0"></use></g></g><g><use xlink:href="#g2xmPHPGop" opacity="1" fill="#000000" fill-opacity="0"></use><g><use xlink:href="#g2xmPHPGop" opacity="1" fill-opacity="0" stroke="#00090b" stroke-width="0" stroke-opacity="1"></use></g></g><g><use xlink:href="#b4C3aOOiXy" opacity="1" fill="#e71b1b" fill-opacity="0"></use></g><g><use xlink:href="#bZxVKghUT" opacity="1" fill="#e71b1b" fill-opacity="0"></use></g></g></g></svg>